<?xml version="1.0" encoding="UTF-8" standalone="no"?>
<svg xmlns:dc="http://purl.org/dc/elements/1.1/" xmlns:cc="http://creativecommons.org/ns#" xmlns:rdf="http://www.w3.org/1999/02/22-rdf-syntax-ns#" xmlns:svg="http://www.w3.org/2000/svg" xmlns="http://www.w3.org/2000/svg" xmlns:sodipodi="http://sodipodi.sourceforge.net/DTD/sodipodi-0.dtd" xmlns:inkscape="http://www.inkscape.org/namespaces/inkscape" version="1.0" width="535.000000pt" height="502.000000pt" viewBox="0 0 535.000000 502.000000" preserveAspectRatio="xMidYMid meet" id="svg28" sodipodi:docname="logo.svg" inkscape:version="1.0.1 (1.0.1+r73)">
  <defs id="defs32"/>
  <sodipodi:namedview pagecolor="#ffffff" bordercolor="#666666" borderopacity="1" objecttolerance="10" gridtolerance="10" guidetolerance="10" inkscape:pageopacity="0" inkscape:pageshadow="2" inkscape:window-width="1920" inkscape:window-height="1023" id="namedview30" showgrid="false" inkscape:zoom="0.8990257" inkscape:cx="446.04763" inkscape:cy="319.75433" inkscape:window-x="0" inkscape:window-y="0" inkscape:window-maximized="1" inkscape:current-layer="svg28"/>
  <metadata id="metadata2">
Created by potrace 1.16, written by Peter Selinger 2001-2019
<rdf:RDF>
  <cc:Work rdf:about="">
    <dc:format>image/svg+xml</dc:format>
    <dc:type rdf:resource="http://purl.org/dc/dcmitype/StillImage"/>
  </cc:Work>
</rdf:RDF>
</metadata>
  <g transform="translate(0.000000,502.000000) scale(0.100000,-0.100000)" fill="#000000" stroke="none" id="g26">
    <path d="M2485 5013 c-294 -24 -545 -78 -795 -170 -155 -57 -406 -185 -550 -281 -622 -414 -1026 -1049 -1115 -1752 -24 -184 -17 -525 14 -695 49 -274 159 -581 275 -770 l31 -50 5 -377 c5 -361 6 -378 26 -404 11 -15 33 -37 48 -48 26 -20 43 -21 394 -26 l367 -5 108 -63 c285 -167 610 -279 987 -338 91 -15 174 -19 395 -19 244 0 298 3 425 23 355 57 720 186 994 351 l84 51 373 0 c343 0 377 2 415 19 24 11 50 33 62 53 22 35 22 43 22 441 l0 405 59 123 c217 454 286 937 205 1429 -110 662 -505 1254 -1104 1655 -231 155 -576 304 -860 373 -274 67 -614 96 -865 75z m461 -158 c496 -50 926 -219 1334 -524 108 -80 335 -306 429 -425 519 -663 633 -1550 297 -2293 l-43 -94 -673 1 c-370 0 -676 2 -680 5 -4 2 -7 18 -8 35 -3 121 -79 237 -194 297 -48 25 -62 28 -158 28 -91 0 -111 -3 -150 -24 -123 -65 -187 -158 -205 -293 l-6 -48 -103 0 -103 0 -6 55 c-12 114 -89 228 -189 278 -95 48 -217 51 -315 7 -102 -45 -188 -167 -200 -285 l-6 -55 -754 0 c-642 0 -758 -2 -782 -15 l-29 -14 -41 91 c-137 298 -201 594 -201 928 0 211 17 358 64 542 125 495 402 919 817 1252 529 423 1215 622 1905 551z m-520 -3151 c58 -40 92 -95 93 -156 l1 -28 -195 0 -195 0 0 31 c0 61 53 138 115 165 17 7 55 13 86 14 45 0 64 -5 95 -26z m914 6 c21 -11 50 -35 64 -53 24 -32 50 -113 40 -129 -7 -10 -381 -11 -388 0 -2 4 0 28 5 54 11 51 56 109 104 133 43 21 128 19 175 -5z m1560 -730 l0 -390 -2200 0 -2200 0 0 390 0 390 2200 0 2200 0 0 -390z m-1090 -571 c-323 -154 -663 -234 -1040 -246 -401 -12 -728 44 -1090 188 -69 27 -141 58 -160 69 -35 19 -25 19 1160 20 l1195 0 -65 -31z" id="path4"/>
    <path d="M679 3881 c-23 -18 -24 -26 -27 -163 -3 -156 4 -184 50 -206 19 -9 33 -9 54 -2 46 18 53 37 54 138 l0 92 179 0 179 0 60 -152 c33 -84 119 -306 192 -493 72 -187 148 -380 167 -430 19 -49 82 -211 140 -360 58 -148 107 -276 110 -283 17 -42 18 -42 950 -42 950 0 924 -1 950 50 14 27 22 47 267 692 183 481 188 500 135 528 -19 11 -136 28 -874 129 -121 17 -364 50 -540 75 -826 115 -954 130 -982 120 -56 -19 -66 -99 -16 -131 16 -11 90 -26 197 -40 94 -13 317 -44 496 -69 301 -41 568 -78 1013 -140 407 -56 542 -75 545 -78 3 -3 -246 -666 -342 -911 l-24 -60 -820 -3 c-648 -2 -822 1 -829 10 -6 7 -23 46 -38 86 -16 39 -32 72 -37 72 -4 0 -8 10 -8 22 0 34 -580 1520 -603 1546 -20 22 -23 22 -298 22 -257 0 -278 -1 -300 -19z" id="path6"/>
    <path d="M2280 3047 c-113 -27 -188 -89 -239 -196 -24 -51 -26 -67 -26 -186 0 -125 1 -133 31 -195 56 -118 130 -177 248 -199 221 -41 384 32 446 197 12 30 19 56 18 57 -5 4 -202 64 -203 62 -1 -1 -14 -27 -28 -58 -33 -69 -75 -94 -143 -86 -101 11 -129 58 -129 218 0 107 2 118 25 152 62 92 197 88 247 -6 l18 -34 98 23 c54 12 101 25 104 27 7 8 -45 104 -77 140 -48 55 -135 88 -243 93 -55 2 -114 -2 -147 -9z" id="path8"/>
    <path d="M3114 3047 c-184 -47 -275 -196 -262 -428 10 -161 88 -280 217 -331 46 -18 77 -22 176 -22 112 -1 124 1 177 27 71 35 131 101 158 174 11 31 19 57 18 58 -5 4 -202 64 -204 62 0 -1 -12 -27 -26 -58 -31 -67 -75 -94 -144 -86 -101 11 -129 58 -129 218 0 107 2 118 25 152 61 90 198 88 245 -3 9 -17 23 -30 35 -30 22 0 180 37 187 44 10 9 -61 128 -91 153 -61 52 -129 75 -234 79 -60 2 -117 -1 -148 -9z" id="path10"/>
    <path d="M2655 1327 c-108 -28 -175 -82 -219 -176 -18 -39 -21 -65 -21 -166 0 -112 2 -124 29 -178 60 -124 135 -169 293 -175 122 -5 185 12 246 67 38 34 87 119 87 151 0 10 -28 23 -88 41 l-87 26 -21 -47 c-28 -62 -56 -80 -120 -80 -99 0 -142 73 -132 220 9 114 65 177 152 166 39 -5 91 -44 101 -77 5 -16 11 -16 98 3 51 11 93 21 95 23 7 7 -41 88 -74 124 -19 21 -56 48 -83 59 -62 27 -188 36 -256 19z" id="path12"/>
    <path d="M940 986 l0 -346 218 0 c119 0 237 5 262 11 98 22 150 87 150 186 0 72 -29 120 -89 148 l-41 18 30 18 c51 31 72 75 67 142 -4 68 -25 102 -88 137 -43 24 -51 25 -276 28 l-233 4 0 -346z m347 193 c33 -12 43 -26 43 -61 0 -45 -23 -58 -106 -58 l-74 0 0 58 c0 32 3 62 7 65 10 11 99 8 130 -4z m56 -278 c23 -19 21 -67 -3 -91 -17 -17 -33 -20 -105 -20 l-85 0 0 64 c0 59 2 65 23 68 44 6 154 -7 170 -21z" id="path14"/>
    <path d="M1680 1265 l0 -65 95 0 96 0 -3 63 -3 62 -92 3 -93 3 0 -66z" id="path16"/>
    <path d="M2118 1273 l-88 -47 0 -43 c0 -43 0 -43 -35 -43 l-35 0 0 -70 0 -70 34 0 34 0 4 -137 c5 -158 17 -195 73 -219 35 -14 139 -19 194 -8 27 6 31 11 31 39 0 18 -3 47 -6 64 -6 29 -9 31 -38 26 -55 -10 -61 2 -61 122 l0 108 53 3 53 3 -3 67 -3 67 -52 3 -53 3 0 90 c0 49 -3 89 -7 89 -5 0 -47 -21 -95 -47z" id="path18"/>
    <path d="M4358 1272 l-88 -46 0 -43 c0 -41 -1 -43 -29 -43 -17 0 -32 -4 -35 -9 -3 -5 -25 -2 -48 6 -55 19 -106 5 -142 -37 l-25 -30 -3 32 -3 33 -87 3 -88 3 0 -251 0 -250 95 0 95 0 0 118 c1 137 10 185 42 219 19 21 29 24 63 19 l40 -6 25 62 25 63 3 -57 3 -58 34 0 33 0 4 -137 c4 -157 15 -190 72 -217 35 -16 135 -22 195 -10 27 6 31 11 31 39 0 18 -3 47 -6 65 -6 29 -9 31 -38 26 -55 -10 -61 1 -61 121 l0 108 53 3 53 3 -3 67 -3 67 -52 3 -53 3 0 90 c0 49 -3 89 -7 89 -5 0 -47 -22 -95 -48z" id="path20"/>
    <path d="M3310 1137 c-31 -7 -70 -22 -87 -35 -28 -19 -63 -75 -63 -100 0 -9 90 -22 151 -22 17 0 38 10 53 25 19 19 36 25 69 25 46 0 67 -13 67 -42 0 -23 -22 -31 -162 -63 -126 -28 -170 -54 -188 -111 -14 -43 -8 -85 20 -124 51 -72 220 -82 312 -18 33 23 35 23 42 -7 6 -24 9 -25 97 -25 83 0 90 2 83 18 -4 9 -10 96 -14 192 -3 96 -11 186 -17 200 -26 60 -91 89 -216 95 -55 3 -114 0 -147 -8z m195 -299 c-11 -58 -15 -66 -38 -81 -53 -34 -119 -28 -130 12 -8 32 22 60 88 81 84 27 88 26 80 -12z" id="path22"/>
    <path d="M1680 890 l0 -250 95 0 95 0 0 250 0 250 -95 0 -95 0 0 -250z" id="path24"/>
  </g>
  <path style="fill:none;stroke:#000000;stroke-width:0.75000002;stroke-linecap:butt;stroke-linejoin:miter;stroke-opacity:1;stroke-miterlimit:4;stroke-dasharray:none" d="m 184.50624,265.26604 3.12913,11.67806" id="path857"/>
  <path style="fill:none;stroke:#000000;stroke-width:7.87500023;stroke-linecap:butt;stroke-linejoin:miter;stroke-opacity:1;stroke-miterlimit:4;stroke-dasharray:none" d="m 179.27579,256.51856 9.77243,24.34385" id="path859"/>
</svg>
