<svg version="1.2" xmlns="http://www.w3.org/2000/svg" viewBox="0 0 1762 376" width="1762" height="376">
	<title>Asset 1</title>
	<defs>
		<linearGradient id="g1" x2="1" gradientUnits="userSpaceOnUse" gradientTransform="matrix(0,-633.475,713.566,0,211.47,517.207)">
			<stop offset="0" stop-color="#798599"/>
			<stop offset="1" stop-color="#798599"/>
		</linearGradient>
	</defs>
	<style>
		.s0 { fill: url(#g1) }
		.s1 { fill: #798599 }
	</style>
	<g id="Layer_1-2">
		<g>
			<g>
				<path fill-rule="evenodd" class="s0" d="m398.5 159.4c-11.5 0-21.2 8-23.8 19.1-11.2 46.6-62.2 82-123.3 82-69.2 0-125.5-45.4-125.5-101.1v-44.9c0-56-45.4-101.5-101.4-101.5-13.6 0.1-24.5 11-24.5 24.5 0 13.5 10.9 24.4 24.4 24.4h2.4c27.7 0 50.2 22.5 50.2 50.2v47.3c0 82.7 78.2 150 174.4 150 84.2 0 154.6-51.6 170.9-119.9 3.6-15.4-8-30.1-23.8-30.1zm-228.9 146.7c-19.2 0-34.7 15.5-34.7 34.7 0 19.1 15.6 34.7 34.7 34.7 19.2 0 34.7-15.6 34.7-34.7 0-19.2-15.5-34.7-34.7-34.7zm202.7 29.1c-3.1-18.9-20.9-31.8-39.8-28.7-19 3.1-31.8 20.9-28.7 39.8 3 19 20.8 31.8 39.8 28.7 18.9-3.1 31.7-20.9 28.7-39.8zm-144.5-126.7c4.5 1.3 7.6 5.4 7.6 10 0 8 6.4 14.5 14.4 14.5h11c8 0 14.4-6.5 14.4-14.5v-0.9c0-4.5 3-8.5 7.3-9.9 38.7-12.2 66.9-48.5 66.9-91.2 0-42.8-28.2-79.1-66.9-91.3-4.3-1.3-7.3-5.3-7.3-9.8v-0.9c0-8-6.4-14.5-14.4-14.5h-11c-8 0-14.4 6.5-14.4 14.5 0 4.6-3.1 8.6-7.6 9.9-40.1 11.3-69.6 48.3-69.6 92.1 0 43.7 29.5 80.7 69.6 92zm26-138.8c24.9 0 45.3 19.5 46.7 44.1 1.4 25.8-19.4 48.6-45.2 49.4-26.4 0.8-48.2-20.4-48.2-46.7 0-26.4 20.9-46.8 46.7-46.8z"/>
			</g>
			<g>
				<path class="s1" d="m702.3 187.1c-1.6 1.3-1.4 3.6 0.3 4.5q18.2 10.6 28.9 28.1 11.8 19.2 11.8 43.6 0 38.8-27.6 64.6-27.5 25.7-67.3 25.7h-132.8c-1.5 0-2.7-1.2-2.7-2.7v-310.8c0-1.5 1.2-2.7 2.7-2.7h122.9q38.8 0 65.5 25.3 27.1 25.3 27.1 62.4c0 24.7-9.6 46.4-28.9 62zm-63.7-100.9h-70.9c-1.5 0-2.7 1.3-2.7 2.8v77.6c0 1.5 1.2 2.7 2.7 2.7h70.9q17.1 0 28.9-11.9 11.7-12 11.7-29.6 0-17.6-11.7-29.6-11.8-12-28.9-12zm-73.7 215.9c0 1.5 1.3 2.8 2.8 2.8h80.8q18.1 0 30.5-12.9 12.4-12.9 12.4-31.4 0-18.5-12.4-31.4-12.4-12.9-30.5-12.9h-80.8c-1.5 0-2.8 1.2-2.8 2.7v83.1z"/>
				<path class="s1" d="m814.1 85.8q-9 9.1-21.7 9.1-12.6 0-22.1-9.1-9-9.4-9-22.1 0-12.6 9-21.7 9-9.4 22.1-9.4 13.1 0 22.2 9.4 9 9.1 9 21.7 0 12.7-9.5 22.1zm0 268.8h-43.3c-1.5 0-2.8-1.2-2.8-2.7v-220.4c0-1.5 1.3-2.7 2.8-2.7h43.3c1.5 0 2.7 1.2 2.7 2.7v220.4c0 1.5-1.2 2.7-2.7 2.7z"/>
				<path class="s1" d="m926 72.1v52.9c0 1.5 1.3 2.8 2.8 2.8h50.5c1.5 0 2.7 1.2 2.7 2.7v41.5c0 1.5-1.2 2.7-2.7 2.7h-50.5c-1.5 0-2.8 1.2-2.8 2.7v105.7q0 14 6.4 20.2 6.3 6 18.7 6.7 11.4 0.7 28.1-0.1c1.5 0 2.8 1.2 2.8 2.7v38.6c0 1.4-1 2.5-2.4 2.7q-54.1 6.1-78-10-24.4-16.5-24.4-60.8v-105.7c0-1.5-1.2-2.7-2.7-2.7h-33.1c-2.3 0-3.5-2.6-2.1-4.4l81.9-99.9c1.6-2 4.8-0.8 4.8 1.7z"/>
				<path class="s1" d="m1111.6 360.5q-51.1 0-85.4-34.3-33.9-34.8-33.9-84.5c0-33.1 11.3-61.9 33.9-84.5q34.3-34.3 85.4-34.3 33 0 60.1 15.8 25.9 15.1 39.4 40.1c0.7 1.3 0.2 3-1 3.7l-37.3 21.6c-1.3 0.8-3 0.3-3.8-1.1q-7.6-14.4-21.9-23-15.6-9.2-35.9-9.2-29.9 0-50.2 20.3-19.9 20.8-19.9 50.6 0 29.8 19.9 50.6 20.3 20.3 50.2 20.3 19.8 0 35.9-9.2 14.8-8.6 22.8-23.1c0.8-1.3 2.4-1.8 3.7-1.1l37.3 21.2c1.3 0.8 1.8 2.5 1 3.8q-14.3 25.4-40.4 40.5-27.4 15.8-59.9 15.8z"/>
				<path class="s1" d="m1412.4 153v-21.5c0-1.5 1.3-2.7 2.8-2.7h43.3c1.5 0 2.7 1.2 2.7 2.7v220.4c0 1.5-1.2 2.7-2.7 2.7h-43.3c-1.5 0-2.8-1.2-2.8-2.7v-21.9c0-2.6-3.1-3.7-4.8-1.7q-27 32.2-74.2 32.2c-31.5 0-57.5-11.4-79.5-34.3q-33-34.4-33-84.5 0-50.1 33-84.5 33-34.3 79.5-34.3c31 0 56.2 10.6 74.3 31.9 1.6 1.9 4.7 0.8 4.7-1.8zm-122.4 140.6q20.4 20.4 51.1 20.4 30.7 0 51-20.4 20.3-20.7 20.3-51.9 0-31.2-20.3-51.5-20.3-20.8-51-20.8-30.7 0-51.1 20.8-20.3 20.3-20.3 51.5c0 20.8 6.8 37.8 20.3 51.9z"/>
				<path class="s1" d="m1532.8 131.5v24.2c0 2.7 3.5 3.7 5 1.4q19.1-31.4 61.7-32.4c1.5 0 2.8 1.3 2.8 2.8v45.1c0 1.5-1.3 2.7-2.8 2.7q-25.8-0.9-46 13.7c-13.8 9.9-20.7 28.6-20.7 51.8v111.1c0 1.5-1.3 2.7-2.8 2.7h-43.3c-1.5 0-2.7-1.2-2.7-2.7v-220.4c0-1.5 1.2-2.7 2.7-2.7h43.3c1.5 0 2.8 1.2 2.8 2.7z"/>
				<path class="s1" d="m1705 73.1v52.9c0 1.5 1.3 2.8 2.8 2.8h50.5c1.5 0 2.7 1.2 2.7 2.7v41.5c0 1.5-1.2 2.7-2.7 2.7h-50.5c-1.5 0-2.8 1.2-2.8 2.7v105.7q0 14 6.3 20.2 6.4 6 18.8 6.7 11.4 0.7 28.1-0.1c1.5 0 2.8 1.2 2.8 2.7v38.6c0 1.4-1 2.5-2.4 2.7q-54.1 6.1-78-10-24.4-16.5-24.4-60.8v-105.7c0-1.5-1.2-2.7-2.7-2.7h-33.1c-2.3 0-3.5-2.6-2.1-4.4l81.9-99.9c1.6-2 4.8-0.8 4.8 1.7z"/>
			</g>
		</g>
	</g>
</svg>
